<svg width="45" height="44" viewBox="0 0 45 44" fill="none" xmlns="http://www.w3.org/2000/svg">
<rect x="0.833984" y="0.5" width="43" height="43" rx="5.5" fill="#1A1A1A"/>
<rect x="0.833984" y="0.5" width="43" height="43" rx="5.5" stroke="#262626"/>
<g clip-path="url(#clip0_312_2659)">
<path d="M30.8535 12H13.8105C12.9941 12 12.334 12.6445 12.334 13.4414V30.5547C12.334 31.3516 12.9941 32 13.8105 32H30.8535C31.6699 32 32.334 31.3516 32.334 30.5586V13.4414C32.334 12.6445 31.6699 12 30.8535 12ZM18.2676 29.043H15.2988V19.4961H18.2676V29.043ZM16.7832 18.1953C15.8301 18.1953 15.0605 17.4258 15.0605 16.4766C15.0605 15.5273 15.8301 14.7578 16.7832 14.7578C17.7324 14.7578 18.502 15.5273 18.502 16.4766C18.502 17.4219 17.7324 18.1953 16.7832 18.1953ZM29.377 29.043H26.4121V24.4023C26.4121 23.2969 26.3926 21.8711 24.8691 21.8711C23.3262 21.8711 23.0918 23.0781 23.0918 24.3242V29.043H20.1309V19.4961H22.9746V20.8008H23.0137C23.4082 20.0508 24.377 19.2578 25.8184 19.2578C28.8223 19.2578 29.377 21.2344 29.377 23.8047V29.043Z" fill="white"/>
</g>
<defs>
<clipPath id="clip0_312_2659">
<rect width="20" height="20" fill="white" transform="translate(12.334 12)"/>
</clipPath>
</defs>
</svg>
