<svg width="45" height="44" viewBox="0 0 45 44" fill="none" xmlns="http://www.w3.org/2000/svg">
<rect x="0.833984" y="0.5" width="43" height="43" rx="5.5" fill="#1A1A1A"/>
<rect x="0.833984" y="0.5" width="43" height="43" rx="5.5" stroke="#262626"/>
<g clip-path="url(#clip0_312_2656)">
<path d="M18.6258 30.125C26.1711 30.125 30.2992 23.8723 30.2992 18.4516C30.2992 18.2758 30.2953 18.0961 30.2875 17.9203C31.0905 17.3396 31.7836 16.6202 32.334 15.7961C31.5861 16.1289 30.792 16.3462 29.9789 16.4406C30.8351 15.9275 31.4761 15.1213 31.7832 14.1715C30.9778 14.6488 30.097 14.9855 29.1785 15.1672C28.5597 14.5097 27.7415 14.0743 26.8504 13.9284C25.9593 13.7825 25.045 13.9342 24.2488 14.3601C23.4526 14.786 22.8188 15.4623 22.4455 16.2845C22.0722 17.1066 21.9802 18.0289 22.1836 18.9086C20.5527 18.8268 18.9573 18.4031 17.5006 17.6651C16.044 16.9271 14.7587 15.8912 13.7281 14.6246C13.2043 15.5277 13.044 16.5964 13.2798 17.6134C13.5157 18.6305 14.1299 19.5196 14.9977 20.1C14.3462 20.0793 13.709 19.9039 13.1387 19.5883V19.6391C13.1381 20.5868 13.4657 21.5055 14.0659 22.239C14.6661 22.9725 15.5018 23.4755 16.4309 23.6625C15.8274 23.8276 15.194 23.8517 14.5797 23.7328C14.8419 24.5479 15.352 25.2608 16.0388 25.772C16.7256 26.2832 17.5549 26.5672 18.4109 26.5844C16.9577 27.726 15.1625 28.3451 13.3145 28.3422C12.9867 28.3417 12.6593 28.3216 12.334 28.2821C14.2114 29.4865 16.3953 30.1262 18.6258 30.125Z" fill="white"/>
</g>
<defs>
<clipPath id="clip0_312_2656">
<rect width="20" height="20" fill="white" transform="translate(12.334 12)"/>
</clipPath>
</defs>
</svg>
