<svg width="48" height="48" viewBox="0 0 48 48" fill="none" xmlns="http://www.w3.org/2000/svg">
<rect x="0.5" y="0.5" width="47" height="47" rx="7.5" fill="#0F0F0F"/>
<rect x="0.5" y="0.5" width="47" height="47" rx="7.5" stroke="#262626"/>
<path d="M31.114 17.636C34.6287 21.1508 34.6287 26.8492 31.114 30.364M28.4626 20.2878C30.5129 22.338 30.5129 25.6621 28.4626 27.7124M18.75 20.25L23.4697 15.5304C23.9421 15.0579 24.75 15.3925 24.75 16.0607V31.9394C24.75 32.6076 23.9421 32.9422 23.4697 32.4697L18.75 27.75H16.5091C15.6297 27.75 14.8059 27.2436 14.5724 26.3958C14.3622 25.633 14.25 24.8296 14.25 24C14.25 23.1705 14.3622 22.3671 14.5724 21.6043C14.8059 20.7565 15.6297 20.25 16.5091 20.25H18.75Z" stroke="white" stroke-width="2" stroke-linecap="round" stroke-linejoin="round"/>
</svg>
