<svg width="48" height="48" viewBox="0 0 48 48" fill="none" xmlns="http://www.w3.org/2000/svg">
<rect x="0.5" y="0.5" width="47" height="47" rx="7.5" fill="#0F0F0F"/>
<rect x="0.5" y="0.5" width="47" height="47" rx="7.5" stroke="#262626"/>
<path d="M18.6326 22.25C19.4389 22.25 20.1665 21.8042 20.6641 21.1697C21.4373 20.1838 22.4117 19.3634 23.5255 18.7702C24.2477 18.3856 24.8743 17.8143 25.1781 17.0546C25.3908 16.5231 25.5 15.9559 25.5 15.3834V14.75C25.5 14.3358 25.8358 14 26.25 14C27.4926 14 28.5 15.0074 28.5 16.25C28.5 17.4016 28.2404 18.4926 27.7766 19.4677C27.511 20.026 27.8836 20.75 28.5019 20.75M28.5019 20.75H31.6277C32.6544 20.75 33.5733 21.444 33.682 22.4649C33.7269 22.8871 33.75 23.3158 33.75 23.75C33.75 26.5976 32.7581 29.2136 31.101 31.2712C30.7134 31.7525 30.1142 32 29.4962 32H25.4802C24.9966 32 24.5161 31.922 24.0572 31.7691L20.9428 30.7309C20.4839 30.578 20.0034 30.5 19.5198 30.5H17.9042M28.5019 20.75H26.25M17.9042 30.5C17.987 30.7046 18.0771 30.9054 18.1742 31.1022C18.3714 31.5017 18.0962 32 17.6507 32H16.7429C15.8542 32 15.0299 31.482 14.7706 30.632C14.4321 29.5226 14.25 28.3451 14.25 27.125C14.25 25.5725 14.5448 24.0889 15.0815 22.7271C15.3865 21.953 16.1673 21.5 16.9994 21.5H18.0521C18.524 21.5 18.7973 22.0559 18.5523 22.4593C17.7259 23.8198 17.25 25.4168 17.25 27.125C17.25 28.3185 17.4823 29.4578 17.9042 30.5Z" stroke="white" stroke-width="2" stroke-linecap="round" stroke-linejoin="round"/>
</svg>
